<svg width="8" height="5" viewBox="0 0 8 5" fill="none" xmlns="http://www.w3.org/2000/svg">
<path d="M4.31422 4.57461L7.87604 1.01273C7.95849 0.930343 8.00391 0.820371 8.00391 0.70311C8.00391 0.585849 7.95849 0.475876 7.87604 0.393494L7.6138 0.131186C7.44292 -0.0394991 7.16519 -0.0394991 6.99456 0.131186L4.00357 3.12218L1.00925 0.127867C0.926803 0.0454855 0.816895 -3.14154e-07 0.699699 -3.19277e-07C0.582373 -3.24406e-07 0.472466 0.0454854 0.389953 0.127867L0.127776 0.390175C0.0453286 0.472622 -9.15782e-05 0.58253 -9.15833e-05 0.699791C-9.15884e-05 0.817052 0.0453286 0.927024 0.127776 1.00941L3.69284 4.57461C3.77555 4.65718 3.88598 4.70254 4.00337 4.70228C4.12122 4.70254 4.23158 4.65718 4.31422 4.57461Z" fill="black"/>
</svg>
