<svg width="20" height="20" viewBox="0 0 20 20" fill="none" xmlns="http://www.w3.org/2000/svg">
<path d="M10 5C10.5515 5 11 4.55141 11 4.00008C11 3.44859 10.5514 3 10 3C9.44863 3 9 3.44859 9 4.00008C9 4.55141 9.44863 5 10 5ZM10 3.62322C10.2078 3.62322 10.3767 3.79234 10.3767 4.00008C10.3767 4.20766 10.2078 4.37678 10 4.37678C9.79224 4.37678 9.62328 4.20782 9.62328 4.00008C9.62328 3.79234 9.79224 3.62322 10 3.62322Z" fill="#2A454C"/>
<path d="M19.707 18.1085H19.3529V17.1011C19.3529 16.9384 19.2216 16.8063 19.0599 16.8063H18.0586V15.7989C18.0586 15.6362 17.9276 15.5042 17.7657 15.5042H17.4117V9.05372H17.7657C17.9276 9.05372 18.0586 8.9217 18.0586 8.75896V7.75157H19.0599C19.2218 7.75157 19.3529 7.61954 19.3529 7.45681V6.15465C19.3529 5.99192 19.2218 5.85989 19.0599 5.85989H18.5043L10.1668 0.0523887C10.0665 -0.0174629 9.93362 -0.0174629 9.83322 0.0523887L1.49582 5.85989H0.940094C0.778351 5.85989 0.647125 5.99177 0.647125 6.15465V7.45681C0.647125 7.61954 0.778351 7.75157 0.940094 7.75157H1.94138V8.75896C1.94138 8.9217 2.0726 9.05372 2.23434 9.05372H2.5885V15.5042H2.23434C2.0726 15.5042 1.94138 15.636 1.94138 15.7989V16.8063H0.940094C0.778351 16.8063 0.647125 16.9384 0.647125 17.1011V18.1085H0.292969C0.131073 18.1085 0 18.2404 0 18.4032V19.7052C0 19.8681 0.131073 20 0.292969 20H19.707C19.8689 20 20 19.8681 20 19.7052V18.4032C20 18.2405 19.8689 18.1085 19.707 18.1085ZM17.4727 16.8063H14.823V16.0937H17.4727V16.8063ZM15.47 15.5042V9.05372H16.8256V15.5042H15.47ZM17.4727 8.46421H14.823V7.75157H17.4727V8.46421ZM14.53 9.05372H14.884V15.5042H14.53C14.3681 15.5042 14.2371 15.636 14.2371 15.7989V16.8063H11.9109V15.7989C11.9109 15.636 11.7796 15.5042 11.6179 15.5042H11.2637V9.05372H11.6179C11.7796 9.05372 11.9109 8.9217 11.9109 8.75896V7.75157H14.2371V8.75896C14.2371 8.9217 14.3681 9.05372 14.53 9.05372ZM8.67523 7.75157H11.3249V8.46421H8.67523V7.75157ZM9.3222 9.05372H10.6778V15.5042H9.3222V9.05372ZM11.3249 16.0937V16.8063H8.67523V16.0937H11.3249ZM1.23306 6.44941H1.58737H1.58768H1.58783H6.34567C6.50757 6.44941 6.63864 6.31738 6.63864 6.15465C6.63864 5.99177 6.50757 5.85989 6.34567 5.85989H2.52518L10 0.653266L17.475 5.85989H7.51755C7.3558 5.85989 7.22458 5.99177 7.22458 6.15465C7.22458 6.31738 7.3558 6.44941 7.51755 6.44941H18.4088H18.4097H18.7669V7.16205H1.23306V6.44941ZM2.52731 7.75157H5.17715V8.46421H2.52731V7.75157ZM4.53003 9.05372V15.5042H3.17444V9.05372H4.53003ZM2.52731 16.0937H5.17715V16.8063H2.52731V16.0937ZM5.47012 15.5042H5.11597V9.05372H5.47012C5.63187 9.05372 5.76309 8.9217 5.76309 8.75896V7.75157H8.08929V8.75896C8.08929 8.9217 8.22037 9.05372 8.38226 9.05372H8.73627V15.5042H8.38226C8.22037 15.5042 8.08929 15.636 8.08929 15.7989V16.8063H5.76309V15.7989C5.76309 15.636 5.63187 15.5042 5.47012 15.5042ZM1.23306 17.3958H18.7669V18.1085H1.23306V17.3958ZM19.4141 19.4106H0.585938V18.698H19.4141V19.4106Z" fill="#2A454C"/>
</svg>
