<svg width="19" height="16" viewBox="0 0 19 16" fill="none" xmlns="http://www.w3.org/2000/svg">
<path d="M9.18379 6.24215C10.9048 6.24215 12.3049 4.84204 12.3049 3.12108C12.3049 1.40011 10.9048 0 9.18379 0C7.46282 0 6.06271 1.40011 6.06271 3.12108C6.06271 4.84204 7.46282 6.24215 9.18379 6.24215ZM9.18379 1.07623C10.3113 1.07623 11.2286 1.99354 11.2286 3.12108C11.2286 4.24861 10.3113 5.16592 9.18379 5.16592C8.05626 5.16592 7.13895 4.24861 7.13895 3.12108C7.13895 1.99354 8.05626 1.07623 9.18379 1.07623Z" fill="#2A454C"/>
<path d="M15.4978 6.24209C16.5857 6.24209 17.4709 5.35696 17.4709 4.26899C17.4709 3.18103 16.5857 2.2959 15.4978 2.2959C14.4098 2.2959 13.5247 3.18103 13.5247 4.26899C13.5247 5.35696 14.4098 6.24209 15.4978 6.24209ZM15.4978 3.37213C15.9923 3.37213 16.3946 3.77446 16.3946 4.26899C16.3946 4.76352 15.9923 5.16585 15.4978 5.16585C15.0033 5.16585 14.6009 4.76352 14.6009 4.26899C14.6009 3.77446 15.0033 3.37213 15.4978 3.37213Z" fill="#2A454C"/>
<path d="M15.9318 7.46191H15.0995C14.1188 7.46191 13.2721 8.04136 12.8863 8.87364C12.0921 8.00656 10.9511 7.46191 9.68534 7.46191H8.6824C7.41661 7.46191 6.27569 8.00656 5.4814 8.87364C5.09557 8.04136 4.24893 7.46191 3.26816 7.46191H2.43587C1.09274 7.46191 0 8.54805 0 9.88308V13.8009C0 14.3805 0.473327 14.852 1.05514 14.852H4.34579C4.40097 15.4942 4.94095 16 5.5972 16H12.7705C13.4268 16 13.9667 15.4942 14.022 14.852H17.275C17.8776 14.852 18.3677 14.3638 18.3677 13.7636V9.88308C18.3677 8.54805 17.275 7.46191 15.9318 7.46191ZM1.07623 9.88308C1.07623 9.14148 1.68617 8.53815 2.43587 8.53815H3.26816C4.01786 8.53815 4.6278 9.14148 4.6278 9.88308V10.2515C4.26594 11.1938 4.34081 11.7584 4.34081 13.7758H1.07623V9.88308ZM12.9507 14.7437C12.9507 14.843 12.8699 14.9238 12.7705 14.9238H5.59717C5.49783 14.9238 5.41704 14.843 5.41704 14.7437V11.8035C5.41704 10.003 6.88186 8.53815 8.68237 8.53815H9.68531C11.4858 8.53815 12.9507 10.003 12.9507 11.8035V14.7437ZM17.2915 13.7636C17.2915 13.7822 17.4921 13.7758 14.0269 13.7758C14.0269 11.7435 14.1012 11.1922 13.7399 10.2515V9.88308C13.7399 9.14148 14.3498 8.53815 15.0995 8.53815H15.9318C16.6815 8.53815 17.2915 9.14148 17.2915 9.88308V13.7636Z" fill="#2A454C"/>
<path d="M2.86994 6.24209C3.95791 6.24209 4.84304 5.35696 4.84304 4.26899C4.84304 3.18103 3.95791 2.2959 2.86994 2.2959C1.78198 2.2959 0.896851 3.18103 0.896851 4.26899C0.896851 5.35696 1.78198 6.24209 2.86994 6.24209ZM2.86994 3.37213C3.36447 3.37213 3.76681 3.77446 3.76681 4.26899C3.76681 4.76352 3.36447 5.16585 2.86994 5.16585C2.37542 5.16585 1.97308 4.76352 1.97308 4.26899C1.97308 3.77446 2.37542 3.37213 2.86994 3.37213Z" fill="#2A454C"/>
</svg>
