<svg width="30" height="27" viewBox="0 0 30 27" fill="none" xmlns="http://www.w3.org/2000/svg">
<path d="M23.4358 11.3571V15.1354C23.4359 15.6367 23.6348 16.1175 23.9888 16.4724C24.3428 16.8273 24.8231 17.0274 25.3244 17.0288C25.4691 17.0287 25.6133 17.0122 25.7543 16.9797L27.4401 16.591C28.0966 16.4419 28.6826 16.0735 29.1016 15.5466C29.5205 15.0197 29.7475 14.3657 29.7449 13.6926V11.7258C29.7475 11.0526 29.5205 10.3987 29.1015 9.87178C28.6826 9.34488 28.0966 8.97649 27.4401 8.82733L25.7543 8.43863C25.4723 8.37439 25.1794 8.37502 24.8976 8.44048C24.4891 6.0778 23.2592 3.93533 21.425 2.39106C19.5908 0.846791 17.2701 -3.10426e-05 14.8724 8.53484e-10C12.4746 3.10444e-05 10.1539 0.846913 8.31976 2.39123C6.48558 3.93554 5.25577 6.07805 4.8473 8.44074C4.56563 8.37492 4.27266 8.37418 3.99065 8.43857L2.30483 8.82728C1.64838 8.97644 1.06236 9.34484 0.643376 9.87174C0.224396 10.3986 -0.00252706 11.0526 2.12306e-05 11.7258V13.6926C-0.00251474 14.3657 0.224414 15.0197 0.643393 15.5466C1.06237 16.0735 1.64839 16.4419 2.30483 16.591L3.99065 16.9797C4.13166 17.0121 4.27587 17.0286 4.42056 17.0288C4.92184 17.0274 5.4021 16.8273 5.75612 16.4724C6.11013 16.1175 6.30901 15.6367 6.30919 15.1354V10.1852C6.30919 7.91406 7.21139 5.73595 8.81731 4.13002C10.4232 2.5241 12.6013 1.6219 14.8725 1.6219C17.1436 1.6219 19.3217 2.5241 20.9276 4.13002C22.5336 5.73595 23.4358 7.91406 23.4358 10.1852V11.3571Z" fill="#2A454C"/>
<path d="M17.5768 24.0664C17.576 23.4212 17.3193 22.8027 16.8631 22.3464C16.4069 21.8902 15.7883 21.6335 15.1431 21.6327C15.0789 21.6327 15.0187 21.6467 14.9559 21.6518C14.8849 21.6391 14.8124 21.6364 14.7406 21.6438C12.6984 22.0116 10.5922 21.6163 8.82229 20.5331C8.06854 20.0444 7.40642 19.4272 6.86606 18.7095C6.80177 18.6246 6.72138 18.5532 6.6295 18.4994C6.53761 18.4456 6.43602 18.4104 6.33053 18.3958C6.22504 18.3812 6.11771 18.3876 6.01468 18.4145C5.91164 18.4414 5.81492 18.4884 5.73002 18.5527C5.64513 18.617 5.57373 18.6973 5.51991 18.7892C5.46608 18.8811 5.43088 18.9827 5.41631 19.0882C5.40175 19.1937 5.4081 19.301 5.43501 19.404C5.46193 19.5071 5.50887 19.6038 5.57316 19.6887C6.2273 20.5584 7.02969 21.3059 7.94347 21.8968C9.40403 22.8251 11.0897 23.3382 12.8198 23.3812C12.7499 23.603 12.7127 23.8339 12.7094 24.0664C12.7094 24.7119 12.9658 25.3309 13.4222 25.7873C13.8787 26.2437 14.4977 26.5001 15.1431 26.5001C15.7886 26.5001 16.4076 26.2437 16.864 25.7873C17.3204 25.3309 17.5768 24.7119 17.5768 24.0664Z" fill="#2A454C"/>
<path d="M22.098 10.5722C21.8256 8.70942 20.8443 7.02383 19.3589 5.86725C17.8735 4.71066 15.9988 4.17245 14.1261 4.36496C12.2534 4.55746 10.5274 5.46581 9.30835 6.9004C8.0893 8.33499 7.47143 10.185 7.58368 12.0642C7.72089 13.9453 8.57086 15.7031 9.96009 16.9787C11.3493 18.2544 13.1731 18.9518 15.059 18.9284H20.3879C20.6264 18.9286 20.8589 18.8537 21.0524 18.7144C21.2459 18.5751 21.3907 18.3784 21.4662 18.1522C21.5417 17.926 21.544 17.6818 21.473 17.4542C21.4019 17.2266 21.2611 17.0271 21.0703 16.884L20.4027 16.3839C21.0835 15.5921 21.587 14.6639 21.8794 13.6615C22.1718 12.6591 22.2464 11.6058 22.098 10.5722ZM12.1679 12.4386C12.0075 12.4386 11.8507 12.3911 11.7173 12.3019C11.5838 12.2128 11.4799 12.0861 11.4185 11.9379C11.3571 11.7896 11.341 11.6265 11.3723 11.4692C11.4036 11.3118 11.4809 11.1672 11.5943 11.0538C11.7078 10.9403 11.8523 10.8631 12.0097 10.8318C12.167 10.8005 12.3302 10.8165 12.4784 10.8779C12.6266 10.9393 12.7533 11.0433 12.8425 11.1767C12.9316 11.3101 12.9792 11.467 12.9792 11.6274C12.9791 11.8426 12.8937 12.0489 12.7415 12.201C12.5894 12.3531 12.3831 12.4386 12.1679 12.4386ZM14.872 12.4386C14.7116 12.4386 14.5547 12.3911 14.4213 12.3019C14.2879 12.2128 14.184 12.0861 14.1226 11.9379C14.0612 11.7896 14.0451 11.6265 14.0764 11.4692C14.1077 11.3118 14.185 11.1672 14.2984 11.0538C14.4119 10.9403 14.5564 10.8631 14.7138 10.8318C14.8711 10.8005 15.0342 10.8165 15.1825 10.8779C15.3307 10.9393 15.4574 11.0433 15.5465 11.1767C15.6357 11.3101 15.6833 11.467 15.6833 11.6274C15.6832 11.8426 15.5977 12.0489 15.4456 12.201C15.2935 12.3531 15.0872 12.4386 14.872 12.4386ZM17.5761 12.4386C17.4157 12.4386 17.2588 12.3911 17.1254 12.3019C16.992 12.2128 16.888 12.0861 16.8266 11.9379C16.7652 11.7896 16.7492 11.6265 16.7805 11.4692C16.8118 11.3118 16.889 11.1672 17.0025 11.0538C17.1159 10.9403 17.2605 10.8631 17.4178 10.8318C17.5752 10.8005 17.7383 10.8165 17.8865 10.8779C18.0348 10.9393 18.1615 11.0433 18.2506 11.1767C18.3398 11.3101 18.3873 11.467 18.3873 11.6274C18.3873 11.8426 18.3018 12.0489 18.1497 12.201C17.9976 12.3531 17.7912 12.4386 17.5761 12.4386Z" fill="#2A454C"/>
</svg>
