<svg width="42" height="52" viewBox="0 0 42 52" fill="none" xmlns="http://www.w3.org/2000/svg">
<path d="M21.2136 31.3595C20.8825 31.3595 20.5505 31.3435 20.2164 31.3115C14.5432 30.7704 10.2213 25.6923 10.5834 19.9921C10.9405 14.388 15.6274 9.99805 21.2536 9.99805C21.3646 9.99805 21.4767 10 21.5877 10.003C27.2869 10.1841 31.9239 14.9721 31.9239 20.6783C31.9239 21.1334 31.8949 21.5925 31.8378 22.0416C31.1587 27.3537 26.5917 31.3595 21.2136 31.3595ZM21.2536 13.9999C17.7909 13.9999 14.7953 16.8025 14.5762 20.2472C14.3492 23.8139 17.0507 26.9916 20.5975 27.3307C24.1692 27.6708 27.4269 25.0012 27.869 21.5365C27.905 21.2544 27.924 20.9664 27.924 20.6803C27.924 17.1125 25.0254 14.1169 21.4617 14.0039L21.2536 13.9999Z" fill="#226776"/>
<path d="M39.9247 22.6798C38.8205 22.6798 37.9243 21.7837 37.9243 20.6794C37.9243 12.4727 31.814 5.37821 23.7103 4.17795C15.5616 2.9707 7.63494 7.99375 5.26644 15.8604C4.79734 17.4157 4.56029 19.0371 4.56029 20.6794C4.56029 21.7837 3.6641 22.6798 2.55987 22.6798C1.45564 22.6798 0.559448 21.7837 0.559448 20.6794C0.559448 18.646 0.854511 16.6366 1.43563 14.7062C4.37325 4.95312 14.2023 -1.27119 24.2964 0.220122C34.3465 1.70944 41.9251 10.5043 41.9251 20.6794C41.9251 21.7847 41.029 22.6798 39.9247 22.6798Z" fill="#226776"/>
<path d="M21.9153 51.5941C21.6033 51.5941 21.2872 51.5211 20.9911 51.3661C20.0119 50.854 19.6329 49.6457 20.144 48.6665C22.3354 44.4686 25.4421 41.0119 28.4457 37.6682C31.0873 34.7296 33.5808 31.953 35.4922 28.7253C37.0605 26.0768 37.8787 23.3582 37.9237 20.6456C37.9427 19.5524 38.8339 18.6782 39.9231 18.6782H39.9571C41.0614 18.6962 41.9415 19.6064 41.9245 20.7117C41.8675 24.1274 40.8613 27.5091 38.9349 30.7628C36.8225 34.3305 34.0779 37.3862 31.4223 40.3408C28.4537 43.6455 25.6501 46.7671 23.6907 50.5169C23.3336 51.2031 22.6375 51.5941 21.9153 51.5941Z" fill="#226776"/>
<path d="M20.5671 51.5941C19.8449 51.5941 19.1488 51.203 18.7927 50.5189C16.8333 46.7681 14.0287 43.6464 11.0611 40.3427C8.40651 37.3881 5.66194 34.3325 3.54849 30.7647C1.62109 27.511 0.614877 24.1283 0.558865 20.7136C0.540861 19.6094 1.42105 18.6982 2.52628 18.6802H2.56029C3.64951 18.6802 4.5407 19.5544 4.55971 20.6476C4.60471 23.3592 5.42189 26.0777 6.99122 28.7273C8.90262 31.955 11.3961 34.7305 14.0377 37.6702C17.0413 41.0139 20.147 44.4706 22.3394 48.6685C22.8515 49.6477 22.4725 50.8559 21.4923 51.368C21.1952 51.5211 20.8791 51.5941 20.5671 51.5941Z" fill="#226776"/>
<path d="M21.2402 52.0002C21.2402 52.0002 21.2392 52.0002 21.2382 52.0002C20.196 51.9992 19.2558 51.4251 18.7837 50.5029C18.2816 49.5197 18.6716 48.3144 19.6548 47.8113C20.169 47.5503 20.7411 47.5303 21.2412 47.7103C21.7423 47.5303 22.3164 47.5503 22.8295 47.8133C23.8127 48.3174 24.2008 49.5227 23.6967 50.5059C23.2246 51.4271 22.2834 52.0002 21.2402 52.0002Z" fill="#226776"/>
</svg>
