<svg width="27" height="18" viewBox="0 0 27 18" fill="none" xmlns="http://www.w3.org/2000/svg">
<path d="M26.0854 1.28613L18.3215 9.00008L26.0854 16.714C26.2258 16.4207 26.3109 16.0964 26.3109 15.7501V2.25008C26.3109 1.90373 26.2258 1.57948 26.0854 1.28613Z" fill="#2A454C"/>
<path d="M24.0608 0H2.96084C2.61449 0 2.29024 0.0851501 1.99689 0.2255L11.92 10.0986C12.7974 10.976 14.2242 10.976 15.1016 10.0986L25.0248 0.2255C24.7314 0.0851501 24.4072 0 24.0608 0Z" fill="#2A454C"/>
<path d="M0.936438 1.28613C0.796088 1.57948 0.710938 1.90373 0.710938 2.25008V15.7501C0.710938 16.0964 0.796088 16.4207 0.936438 16.714L8.70039 9.00008L0.936438 1.28613Z" fill="#2A454C"/>
<path d="M17.2608 10.0605L16.1622 11.1592C14.7002 12.6211 12.3214 12.6211 10.8594 11.1592L9.76084 10.0605L1.99689 17.7745C2.29024 17.9148 2.61449 18 2.96084 18H24.0608C24.4072 18 24.7314 17.9148 25.0248 17.7745L17.2608 10.0605Z" fill="#2A454C"/>
</svg>
