<svg width="59" height="50" viewBox="0 0 59 50" fill="none" xmlns="http://www.w3.org/2000/svg">
<path d="M1.45098 49.3333C1.06616 49.3333 0.697094 49.1804 0.424982 48.9083C0.152871 48.6362 0 48.2671 0 47.8823V13.0588C0 11.9043 0.458612 10.7971 1.27495 9.98076C2.09128 9.16442 3.19847 8.70581 4.35294 8.70581H36.2745C37.429 8.70581 38.5362 9.16442 39.3525 9.98076C40.1688 10.7971 40.6274 11.9043 40.6274 13.0588V36.2744C40.6274 37.4289 40.1688 38.5361 39.3525 39.3524C38.5362 40.1688 37.429 40.6274 36.2745 40.6274H12.6816C12.335 40.6274 12 40.7514 11.737 40.9771L2.39412 48.9836C2.13149 49.2089 1.797 49.3329 1.45098 49.3333ZM4.35294 11.6078C3.96812 11.6078 3.59905 11.7606 3.32694 12.0328C3.05483 12.3049 2.90196 12.6739 2.90196 13.0588V44.7278L9.84925 38.7788C10.6373 38.1007 11.642 37.7271 12.6816 37.7254H36.2745C36.6593 37.7254 37.0284 37.5725 37.3005 37.3004C37.5726 37.0283 37.7255 36.6593 37.7255 36.2744V13.0588C37.7255 12.6739 37.5726 12.3049 37.3005 12.0328C37.0284 11.7606 36.6593 11.6078 36.2745 11.6078H4.35294Z" fill="#226776"/>
<path d="M56.5882 43.5294C56.3005 43.5291 56.0194 43.4438 55.78 43.2842L43.5192 35.0716C43.2819 34.9121 43.0028 34.8258 42.7168 34.8235H39.1765C38.7916 34.8235 38.4226 34.6706 38.1505 34.3985C37.8783 34.1264 37.7255 33.7574 37.7255 33.3725C37.7255 32.9877 37.8783 32.6186 38.1505 32.3465C38.4226 32.0744 38.7916 31.9216 39.1765 31.9216H42.7168C43.5767 31.9229 44.4168 32.1789 45.1313 32.6572L55.1372 39.3593V4.35294C55.1372 3.96812 54.9844 3.59905 54.7123 3.32694C54.4401 3.05483 54.0711 2.90196 53.6863 2.90196H24.6667C24.2818 2.90196 23.9128 3.05483 23.6407 3.32694C23.3686 3.59905 23.2157 3.96812 23.2157 4.35294V10.1569C23.2157 10.5417 23.0628 10.9107 22.7907 11.1829C22.5186 11.455 22.1495 11.6078 21.7647 11.6078C21.3799 11.6078 21.0108 11.455 20.7387 11.1829C20.4666 10.9107 20.3137 10.5417 20.3137 10.1569V4.35294C20.3137 3.19847 20.7723 2.09128 21.5887 1.27495C22.405 0.458612 23.5122 0 24.6667 0H53.6863C54.8407 0 55.9479 0.458612 56.7643 1.27495C57.5806 2.09128 58.0392 3.19847 58.0392 4.35294V42.0784C58.0392 42.4632 57.8863 42.8323 57.6142 43.1044C57.3421 43.3765 56.973 43.5294 56.5882 43.5294Z" fill="#226776"/>
<path d="M29.0196 21.7648H11.6078C11.223 21.7648 10.854 21.6119 10.5818 21.3398C10.3097 21.0677 10.1569 20.6986 10.1569 20.3138C10.1569 19.9289 10.3097 19.5599 10.5818 19.2878C10.854 19.0157 11.223 18.8628 11.6078 18.8628H29.0196C29.4044 18.8628 29.7735 19.0157 30.0456 19.2878C30.3177 19.5599 30.4706 19.9289 30.4706 20.3138C30.4706 20.6986 30.3177 21.0677 30.0456 21.3398C29.7735 21.6119 29.4044 21.7648 29.0196 21.7648Z" fill="#226776"/>
<path d="M20.3137 29.0196H11.6078C11.223 29.0196 10.854 28.8668 10.5818 28.5947C10.3097 28.3225 10.1569 27.9535 10.1569 27.5687C10.1569 27.1838 10.3097 26.8148 10.5818 26.5427C10.854 26.2705 11.223 26.1177 11.6078 26.1177H20.3137C20.6985 26.1177 21.0676 26.2705 21.3397 26.5427C21.6118 26.8148 21.7647 27.1838 21.7647 27.5687C21.7647 27.9535 21.6118 28.3225 21.3397 28.5947C21.0676 28.8668 20.6985 29.0196 20.3137 29.0196Z" fill="#226776"/>
<path d="M29.0196 29.0196H24.6667C24.2819 29.0196 23.9128 28.8668 23.6407 28.5947C23.3686 28.3225 23.2157 27.9535 23.2157 27.5687C23.2157 27.1838 23.3686 26.8148 23.6407 26.5427C23.9128 26.2705 24.2819 26.1177 24.6667 26.1177H29.0196C29.4044 26.1177 29.7735 26.2705 30.0456 26.5427C30.3177 26.8148 30.4706 27.1838 30.4706 27.5687C30.4706 27.9535 30.3177 28.3225 30.0456 28.5947C29.7735 28.8668 29.4044 29.0196 29.0196 29.0196Z" fill="#226776"/>
</svg>
