<svg width="20" height="18" viewBox="0 0 20 18" fill="none" xmlns="http://www.w3.org/2000/svg">
<path d="M15.4764 7.49999V9.9951C15.4766 10.3261 15.6079 10.6436 15.8417 10.878C16.0755 11.1124 16.3926 11.2445 16.7237 11.2455C16.8192 11.2454 16.9144 11.2345 17.0076 11.213L18.1208 10.9563C18.5543 10.8578 18.9413 10.6145 19.218 10.2666C19.4947 9.91865 19.6445 9.4868 19.6429 9.04226V7.74343C19.6445 7.29889 19.4947 6.86704 19.218 6.5191C18.9413 6.17115 18.5543 5.92787 18.1208 5.82937L17.0075 5.57268C16.8213 5.53025 16.6279 5.53067 16.4418 5.5739C16.1721 4.01364 15.3599 2.5988 14.1486 1.579C12.9373 0.559201 11.4048 -2.04999e-05 9.82137 5.63621e-10C8.23796 2.0501e-05 6.70543 0.559282 5.49418 1.57911C4.28293 2.59894 3.47079 4.0138 3.20105 5.57407C3.01504 5.5306 2.82156 5.53012 2.63533 5.57264L1.52206 5.82933C1.08855 5.92783 0.701556 6.17112 0.424871 6.51907C0.148186 6.86703 -0.00166881 7.29888 1.40202e-05 7.74343V9.04226C-0.00166068 9.4868 0.148198 9.91865 0.424882 10.2666C0.701567 10.6145 1.08856 10.8578 1.52206 10.9563L2.63533 11.213C2.72845 11.2344 2.82368 11.2453 2.91923 11.2455C3.25027 11.2445 3.56743 11.1124 3.80121 10.878C4.03499 10.6436 4.16633 10.3261 4.16644 9.9951V6.72606C4.16644 5.22626 4.76223 3.78789 5.82275 2.72737C6.88327 1.66686 8.32164 1.07106 9.82144 1.07106C11.3212 1.07106 12.7596 1.66686 13.8201 2.72737C14.8806 3.78789 15.4764 5.22626 15.4764 6.72606V7.49999Z" fill="#2A454C"/>
<path d="M11.6073 15.8928C11.6068 15.4668 11.4373 15.0583 11.136 14.757C10.8347 14.4557 10.4262 14.2862 10.0002 14.2857C9.95779 14.2857 9.91803 14.2949 9.87653 14.2983C9.82962 14.2899 9.78178 14.2881 9.73438 14.293C8.38574 14.5359 6.99488 14.2748 5.82604 13.5596C5.32828 13.2368 4.89103 12.8292 4.53419 12.3553C4.49173 12.2992 4.43865 12.2521 4.37797 12.2165C4.31729 12.181 4.2502 12.1577 4.18054 12.1481C4.11087 12.1385 4.04 12.1427 3.97196 12.1604C3.90391 12.1782 3.84004 12.2092 3.78398 12.2517C3.72792 12.2941 3.68077 12.3472 3.64522 12.4079C3.60968 12.4686 3.58643 12.5357 3.57681 12.6053C3.56719 12.675 3.57139 12.7459 3.58916 12.8139C3.60693 12.882 3.63793 12.9458 3.68039 13.0019C4.11237 13.5762 4.64225 14.0698 5.24568 14.4601C6.21021 15.0731 7.32342 15.412 8.4659 15.4403C8.41975 15.5868 8.39521 15.7393 8.39303 15.8928C8.39303 16.3191 8.56235 16.7279 8.86375 17.0293C9.16515 17.3307 9.57393 17.5 10.0002 17.5C10.4264 17.5 10.8352 17.3307 11.1366 17.0293C11.438 16.7279 11.6073 16.3191 11.6073 15.8928Z" fill="#2A454C"/>
<path d="M14.5932 6.98183C14.4133 5.7517 13.7652 4.63857 12.7843 3.87479C11.8034 3.11101 10.5654 2.75559 9.32869 2.88271C8.09199 3.00984 6.95218 3.60969 6.14715 4.55706C5.34212 5.50443 4.93409 6.72611 5.00822 7.96711C5.09883 9.20934 5.66013 10.3701 6.57755 11.2126C7.49496 12.055 8.69931 12.5155 9.94474 12.5001H13.4639C13.6213 12.5002 13.7748 12.4508 13.9026 12.3588C14.0304 12.2668 14.126 12.1369 14.1759 11.9875C14.2257 11.8381 14.2273 11.6769 14.1804 11.5265C14.1335 11.3762 14.0404 11.2445 13.9145 11.15L13.4736 10.8197C13.9232 10.2969 14.2557 9.68391 14.4488 9.02195C14.6419 8.35999 14.6911 7.66438 14.5932 6.98183ZM8.03556 8.21439C7.92961 8.21439 7.82603 8.18297 7.73794 8.12411C7.64984 8.06524 7.58118 7.98157 7.54063 7.88369C7.50008 7.7858 7.48947 7.67808 7.51014 7.57416C7.53081 7.47025 7.58184 7.37479 7.65676 7.29987C7.73168 7.22495 7.82713 7.17393 7.93105 7.15326C8.03497 7.13259 8.14268 7.14319 8.24057 7.18374C8.33846 7.22429 8.42213 7.29295 8.48099 7.38105C8.53986 7.46915 8.57128 7.57272 8.57128 7.67868C8.57125 7.82075 8.51481 7.957 8.41435 8.05746C8.31388 8.15792 8.17764 8.21437 8.03556 8.21439ZM9.82128 8.21439C9.71532 8.21439 9.61175 8.18297 9.52365 8.12411C9.43555 8.06524 9.36689 7.98157 9.32634 7.88369C9.2858 7.7858 9.27519 7.67808 9.29586 7.57416C9.31653 7.47025 9.36755 7.37479 9.44247 7.29987C9.51739 7.22495 9.61285 7.17393 9.71676 7.15326C9.82068 7.13259 9.9284 7.14319 10.0263 7.18374C10.1242 7.22429 10.2078 7.29295 10.2667 7.38105C10.3256 7.46915 10.357 7.57272 10.357 7.67868C10.357 7.82075 10.3005 7.957 10.2001 8.05746C10.0996 8.15792 9.96335 8.21437 9.82128 8.21439ZM11.607 8.21439C11.501 8.21439 11.3975 8.18297 11.3094 8.12411C11.2213 8.06524 11.1526 7.98157 11.1121 7.88369C11.0715 7.7858 11.0609 7.67808 11.0816 7.57416C11.1022 7.47025 11.1533 7.37479 11.2282 7.29987C11.3031 7.22495 11.3986 7.17393 11.5025 7.15326C11.6064 7.13259 11.7141 7.14319 11.812 7.18374C11.9099 7.22429 11.9936 7.29295 12.0524 7.38105C12.1113 7.46915 12.1427 7.57272 12.1427 7.67868C12.1427 7.82075 12.0862 7.957 11.9858 8.05746C11.8853 8.15792 11.7491 8.21437 11.607 8.21439Z" fill="#2A454C"/>
</svg>
