<svg width="19" height="17" viewBox="0 0 19 17" fill="none" xmlns="http://www.w3.org/2000/svg">
<path d="M13.7308 5.23077C15.1752 5.23077 16.3462 4.05982 16.3462 2.61538C16.3462 1.17095 15.1752 0 13.7308 0C12.2863 0 11.1154 1.17095 11.1154 2.61538C11.1154 4.05982 12.2863 5.23077 13.7308 5.23077Z" fill="#2A454C"/>
<path d="M5.23077 6.53837C5.2303 6.31908 5.25 6.10021 5.28961 5.88452H3.26923C2.40218 5.88452 1.57063 6.22896 0.957535 6.84206C0.344436 7.45516 0 8.2867 0 9.15375V12.423C0 12.5964 0.0688871 12.7627 0.191507 12.8853C0.314127 13.0079 0.480435 13.0768 0.653846 13.0768H3.26923C3.26994 12.1869 3.53009 11.3165 4.01783 10.5721C4.50557 9.82769 5.19974 9.24165 6.01538 8.88567C5.50742 8.2084 5.23218 7.38497 5.23077 6.53837Z" fill="#2A454C"/>
<path d="M15.0385 5.88452H13.0181C13.0577 6.10021 13.0774 6.31908 13.077 6.53837C13.0756 7.38497 12.8003 8.2084 12.2924 8.88567C13.108 9.24165 13.8022 9.82769 14.2899 10.5721C14.7777 11.3165 15.0378 12.1869 15.0385 13.0768H17.6539C17.8273 13.0768 17.9936 13.0079 18.1162 12.8853C18.2389 12.7627 18.3077 12.5964 18.3077 12.423V9.15375C18.3077 8.2867 17.9633 7.45516 17.3502 6.84206C16.7371 6.22896 15.9056 5.88452 15.0385 5.88452Z" fill="#2A454C"/>
<path d="M4.57666 5.23077C6.02109 5.23077 7.19204 4.05982 7.19204 2.61538C7.19204 1.17095 6.02109 0 4.57666 0C3.13222 0 1.96127 1.17095 1.96127 2.61538C1.96127 4.05982 3.13222 5.23077 4.57666 5.23077Z" fill="#2A454C"/>
<path d="M9.15399 9.15386C10.5984 9.15386 11.7694 7.98292 11.7694 6.53848C11.7694 5.09404 10.5984 3.9231 9.15399 3.9231C7.70955 3.9231 6.5386 5.09404 6.5386 6.53848C6.5386 7.98292 7.70955 9.15386 9.15399 9.15386Z" fill="#2A454C"/>
<path d="M10.4614 9.80762H7.84604C6.97899 9.80762 6.14745 10.1521 5.53435 10.7652C4.92125 11.3783 4.57681 12.2098 4.57681 13.0768V16.3461C4.57681 16.5195 4.6457 16.6858 4.76832 16.8084C4.89094 16.931 5.05725 16.9999 5.23066 16.9999H13.0768C13.2502 16.9999 13.4165 16.931 13.5391 16.8084C13.6618 16.6858 13.7307 16.5195 13.7307 16.3461V13.0768C13.7307 12.6475 13.6461 12.2224 13.4818 11.8258C13.3175 11.4291 13.0767 11.0687 12.7731 10.7652C12.4695 10.4616 12.1091 10.2208 11.7125 10.0565C11.3159 9.89218 10.8907 9.80762 10.4614 9.80762Z" fill="#2A454C"/>
</svg>
