<svg width="23" height="23" viewBox="0 0 23 23" fill="none" xmlns="http://www.w3.org/2000/svg">
<path d="M21.5212 16.2553L18.4302 13.1643C17.3263 12.0604 15.4496 12.502 15.008 13.9371C14.6769 14.9307 13.5729 15.4826 12.5794 15.2618C10.3715 14.7098 7.39094 11.8396 6.83898 9.52137C6.5078 8.52779 7.17015 7.42386 8.16369 7.09273C9.59879 6.65116 10.0404 4.77448 8.93644 3.67056L5.84544 0.579561C4.9623 -0.193187 3.63759 -0.193187 2.86484 0.579561L0.767381 2.67702C-1.33008 4.88488 0.988166 10.7357 6.17662 15.9241C11.3651 21.1126 17.2159 23.5413 19.4237 21.3334L21.5212 19.2359C22.294 18.3528 22.294 17.0281 21.5212 16.2553Z" fill="#2A454C"/>
</svg>
